<svg xmlns="http://www.w3.org/2000/svg" width="1180" height="640" viewBox="0 0 1180 640" font-family="ui-sans-serif,system-ui,-apple-system,Segoe UI,Helvetica,Arial,sans-serif">
<rect width="1180" height="640" fill="#0d1117"/>
<text x="590" y="32" fill="#e6edf3" font-size="20" font-weight="700" text-anchor="middle">Saturation</text>
<text x="590" y="52" fill="#8b949e" font-size="13" text-anchor="middle">Trips per dump truck per day vs fleet size</text>
<defs>
<filter id="sc-soft" x="-5%" y="-5%" width="110%" height="110%"><feDropShadow dx="0" dy="1" stdDeviation="2" flood-color="#000" flood-opacity=".35"/></filter>
</defs>
<g filter="url(#sc-soft)">
<rect x="28.0" y="78.0" width="548.0" height="490.0" rx="12" fill="#161b22" stroke="#30363d"/>
</g>
<text x="44.0" y="104.0" fill="#e6edf3" font-size="15" font-weight="700">TF → HUAFEI</text>
<clipPath id="sc-clip-0"><rect x="80.0" y="114.0" width="452.0" height="418.0"/></clipPath>
<line x1="80.0" y1="532.0" x2="532.0" y2="532.0" stroke="#21262d" stroke-width="1"/>
<text x="72.0" y="536.0" fill="#8b949e" font-size="11" text-anchor="end" style="font-variant-numeric:tabular-nums">0</text>
<line x1="80.0" y1="453.6" x2="532.0" y2="453.6" stroke="#21262d" stroke-width="1"/>
<text x="72.0" y="457.6" fill="#8b949e" font-size="11" text-anchor="end" style="font-variant-numeric:tabular-nums">0.5</text>
<line x1="80.0" y1="375.3" x2="532.0" y2="375.3" stroke="#21262d" stroke-width="1"/>
<text x="72.0" y="379.3" fill="#8b949e" font-size="11" text-anchor="end" style="font-variant-numeric:tabular-nums">1</text>
<line x1="80.0" y1="296.9" x2="532.0" y2="296.9" stroke="#21262d" stroke-width="1"/>
<text x="72.0" y="300.9" fill="#8b949e" font-size="11" text-anchor="end" style="font-variant-numeric:tabular-nums">1.5</text>
<line x1="80.0" y1="218.5" x2="532.0" y2="218.5" stroke="#21262d" stroke-width="1"/>
<text x="72.0" y="222.5" fill="#8b949e" font-size="11" text-anchor="end" style="font-variant-numeric:tabular-nums">2</text>
<line x1="80.0" y1="140.1" x2="532.0" y2="140.1" stroke="#21262d" stroke-width="1"/>
<text x="72.0" y="144.1" fill="#8b949e" font-size="11" text-anchor="end" style="font-variant-numeric:tabular-nums">2.5</text>
<line x1="80.0" y1="114.0" x2="80.0" y2="532.0" stroke="#21262d" stroke-width="1"/>
<text x="80.0" y="550.0" fill="#8b949e" font-size="11" text-anchor="middle" style="font-variant-numeric:tabular-nums">0</text>
<line x1="193.0" y1="114.0" x2="193.0" y2="532.0" stroke="#21262d" stroke-width="1"/>
<text x="193.0" y="550.0" fill="#8b949e" font-size="11" text-anchor="middle" style="font-variant-numeric:tabular-nums">200</text>
<line x1="306.0" y1="114.0" x2="306.0" y2="532.0" stroke="#21262d" stroke-width="1"/>
<text x="306.0" y="550.0" fill="#8b949e" font-size="11" text-anchor="middle" style="font-variant-numeric:tabular-nums">400</text>
<line x1="419.0" y1="114.0" x2="419.0" y2="532.0" stroke="#21262d" stroke-width="1"/>
<text x="419.0" y="550.0" fill="#8b949e" font-size="11" text-anchor="middle" style="font-variant-numeric:tabular-nums">600</text>
<line x1="532.0" y1="114.0" x2="532.0" y2="532.0" stroke="#21262d" stroke-width="1"/>
<text x="532.0" y="550.0" fill="#8b949e" font-size="11" text-anchor="middle" style="font-variant-numeric:tabular-nums">800</text>
<line x1="80.0" y1="114.0" x2="80.0" y2="532.0" stroke="#30363d" stroke-width="1.25"/>
<line x1="80.0" y1="532.0" x2="532.0" y2="532.0" stroke="#30363d" stroke-width="1.25"/>
<text x="306.0" y="564.0" fill="#8b949e" font-size="10" font-weight="700" letter-spacing=".06em" text-anchor="middle">FLEET (DT)</text>
<g clip-path="url(#sc-clip-0)">
<polygon points="85.7,121.5 91.3,121.6 97.0,121.8 102.6,122.1 108.2,122.3 113.9,122.4 119.5,122.7 125.2,122.9 130.8,123.2 136.5,123.5 142.2,123.8 147.8,124.1 153.4,124.6 159.1,124.9 164.8,125.6 170.4,126.0 176.1,124.8 181.7,119.1 187.3,113.6 193.0,108.8 198.7,104.6 204.3,101.6 209.9,100.2 215.6,100.5 221.2,102.4 226.9,105.2 232.6,108.5 238.2,111.9 243.8,115.4 249.5,119.0 255.2,122.4 260.8,125.7 266.4,129.0 272.1,135.3 277.8,143.3 283.4,150.9 289.1,158.5 294.7,165.5 300.4,172.4 306.0,179.2 311.6,185.4 317.3,191.7 322.9,197.7 328.6,203.5 334.2,206.4 339.9,206.4 345.6,206.4 351.2,206.4 356.9,206.4 362.5,206.4 368.1,206.4 373.8,206.4 379.4,206.4 385.1,206.4 390.8,206.4 396.4,206.4 402.1,206.4 407.7,206.4 413.4,206.4 419.0,206.4 424.6,206.4 430.3,206.4 435.9,206.4 441.6,206.4 447.2,206.4 452.9,206.4 458.6,206.4 464.2,206.4 469.9,206.4 475.5,206.4 481.1,206.4 486.8,206.4 492.4,206.4 498.1,206.4 503.8,206.4 509.4,206.4 515.0,206.4 520.7,206.4 526.4,206.4 532.0,206.4 532.0,392.5 526.4,392.5 520.7,392.5 515.0,392.5 509.4,392.5 503.8,392.5 498.1,392.5 492.4,392.5 486.8,392.5 481.1,392.5 475.5,392.5 469.9,392.5 464.2,392.5 458.6,392.5 452.9,392.5 447.2,392.5 441.6,392.5 435.9,392.5 430.3,392.5 424.6,392.5 419.0,392.5 413.4,392.5 407.7,392.5 402.1,392.5 396.4,392.5 390.8,392.5 385.1,392.5 379.4,392.5 373.8,392.5 368.1,392.5 362.5,392.5 356.9,392.5 351.2,392.5 345.6,392.5 339.9,392.5 334.2,392.5 328.6,391.2 322.9,388.7 317.3,386.1 311.6,383.6 306.0,380.7 300.4,377.9 294.7,374.9 289.1,372.0 283.4,368.7 277.8,365.4 272.1,361.9 266.4,356.3 260.8,347.4 255.2,337.9 249.5,328.1 243.8,317.9 238.2,307.2 232.6,296.4 226.9,285.1 221.2,273.7 215.6,262.6 209.9,251.9 204.3,242.2 198.7,233.2 193.0,225.1 187.3,217.3 181.7,209.7 176.1,202.4 170.4,199.9 164.8,199.4 159.1,198.9 153.4,198.6 147.8,198.3 142.2,198.0 136.5,197.8 130.8,197.5 125.2,197.3 119.5,197.0 113.9,196.9 108.2,196.7 102.6,196.6 97.0,196.4 91.3,196.2 85.7,196.1" fill="rgba(88,166,255,.14)" stroke="none"/>
<line x1="80.0" y1="375.3" x2="532.0" y2="375.3" stroke="#f85149" stroke-width="1" stroke-dasharray="3 4" stroke-opacity=".85"/>
<line x1="215.6" y1="114.0" x2="215.6" y2="532.0" stroke="#d29922" stroke-width="1.25" stroke-dasharray="4 4" stroke-opacity=".9"/>
<polyline points="85.7,158.8 91.3,158.9 97.0,159.1 102.6,159.3 108.2,159.6 113.9,159.7 119.5,159.9 125.2,160.0 130.8,160.4 136.5,160.7 142.2,161.0 147.8,161.3 153.4,161.6 159.1,161.9 164.8,162.4 170.4,163.0 176.1,163.6 181.7,164.4 187.3,165.5 193.0,166.9 198.7,169.0 204.3,171.8 209.9,176.0 215.6,181.5 221.2,188.1 226.9,195.2 232.6,202.4 238.2,209.6 243.8,216.6 249.5,223.5 255.2,230.1 260.8,236.5 266.4,242.6 272.1,248.6 277.8,254.4 283.4,259.9 289.1,265.2 294.7,270.2 300.4,275.2 306.0,280.0 311.6,284.5 317.3,288.9 322.9,293.1 328.6,297.3 334.2,299.4 339.9,299.4 345.6,299.4 351.2,299.4 356.9,299.4 362.5,299.4 368.1,299.4 373.8,299.4 379.4,299.4 385.1,299.4 390.8,299.4 396.4,299.4 402.1,299.4 407.7,299.4 413.4,299.4 419.0,299.4 424.6,299.4 430.3,299.4 435.9,299.4 441.6,299.4 447.2,299.4 452.9,299.4 458.6,299.4 464.2,299.5 469.9,299.5 475.5,299.5 481.1,299.5 486.8,299.5 492.4,299.5 498.1,299.5 503.8,299.5 509.4,299.5 515.0,299.5 520.7,299.5 526.4,299.5 532.0,299.5" fill="none" stroke="#58a6ff" stroke-width="2.4" stroke-linejoin="round" stroke-linecap="round"/>
<circle cx="532.0" cy="299.5" r="3.2" fill="#58a6ff"/>
<polyline points="85.7,159.1 91.3,159.9 97.0,161.0 102.6,159.4 108.2,159.7 113.9,159.7 119.5,159.9 125.2,160.0 130.8,160.2 136.5,160.5 142.2,160.7 147.8,160.8 153.4,161.0 159.1,161.1 164.8,161.5 170.4,161.6 176.1,161.8 181.7,161.9 187.3,162.1 193.0,162.4 198.7,162.5 204.3,162.5 209.9,162.5 215.6,162.5 221.2,162.5 226.9,162.5 232.6,162.5 238.2,162.5 243.8,162.5 249.5,162.5 255.2,162.5 260.8,162.5 266.4,162.5 272.1,162.5 277.8,162.5 283.4,162.5 289.1,162.5 294.7,162.5 300.4,162.5 306.0,162.5 311.6,162.5 317.3,162.5 322.9,162.5 328.6,162.5 334.2,162.5 339.9,162.5 345.6,162.5 351.2,162.5 356.9,162.5 362.5,162.5 368.1,162.5 373.8,162.5 379.4,162.5 385.1,162.5 390.8,162.5 396.4,162.5 402.1,162.5 407.7,162.5 413.4,162.5 419.0,162.5 424.6,162.5 430.3,162.5 435.9,162.5 441.6,162.5 447.2,162.5 452.9,162.5 458.6,162.5 464.2,162.5 469.9,162.5 475.5,162.5 481.1,162.5 486.8,162.5 492.4,162.5 498.1,162.5 503.8,162.5 509.4,162.5 515.0,162.5 520.7,162.5 526.4,162.5 532.0,162.5" fill="none" stroke="#f0883e" stroke-width="2.4" stroke-linejoin="round" stroke-linecap="round" stroke-dasharray="7 5"/>
<circle cx="532.0" cy="162.5" r="3.2" fill="#f0883e"/>
</g>
<text x="538.0" y="378.3" fill="#f85149" font-size="10" text-anchor="start">1 / day</text>
<rect x="166.6" y="120.0" width="98.0" height="18" rx="4" fill="#161b22" stroke="#d29922"/>
<text x="215.6" y="133.0" fill="#d29922" font-size="10" font-weight="700" text-anchor="middle">Knee 240 DT</text>
<text x="538.0" y="297.5" fill="#58a6ff" font-size="11" font-weight="700" style="font-variant-numeric:tabular-nums">1.48</text>
<text x="538.0" y="174.5" fill="#f0883e" font-size="11" font-weight="700" style="font-variant-numeric:tabular-nums">2.36</text>
<g filter="url(#sc-soft)">
<rect x="604.0" y="78.0" width="548.0" height="490.0" rx="12" fill="#161b22" stroke="#30363d"/>
</g>
<text x="620.0" y="104.0" fill="#e6edf3" font-size="15" font-weight="700">BLB → POS 14</text>
<clipPath id="sc-clip-1"><rect x="656.0" y="114.0" width="452.0" height="418.0"/></clipPath>
<line x1="656.0" y1="532.0" x2="1108.0" y2="532.0" stroke="#21262d" stroke-width="1"/>
<text x="648.0" y="536.0" fill="#8b949e" font-size="11" text-anchor="end" style="font-variant-numeric:tabular-nums">0</text>
<line x1="656.0" y1="426.8" x2="1108.0" y2="426.8" stroke="#21262d" stroke-width="1"/>
<text x="648.0" y="430.8" fill="#8b949e" font-size="11" text-anchor="end" style="font-variant-numeric:tabular-nums">2</text>
<line x1="656.0" y1="321.5" x2="1108.0" y2="321.5" stroke="#21262d" stroke-width="1"/>
<text x="648.0" y="325.5" fill="#8b949e" font-size="11" text-anchor="end" style="font-variant-numeric:tabular-nums">4</text>
<line x1="656.0" y1="216.3" x2="1108.0" y2="216.3" stroke="#21262d" stroke-width="1"/>
<text x="648.0" y="220.3" fill="#8b949e" font-size="11" text-anchor="end" style="font-variant-numeric:tabular-nums">6</text>
<line x1="656.0" y1="114.0" x2="656.0" y2="532.0" stroke="#21262d" stroke-width="1"/>
<text x="656.0" y="550.0" fill="#8b949e" font-size="11" text-anchor="middle" style="font-variant-numeric:tabular-nums">0</text>
<line x1="769.0" y1="114.0" x2="769.0" y2="532.0" stroke="#21262d" stroke-width="1"/>
<text x="769.0" y="550.0" fill="#8b949e" font-size="11" text-anchor="middle" style="font-variant-numeric:tabular-nums">200</text>
<line x1="882.0" y1="114.0" x2="882.0" y2="532.0" stroke="#21262d" stroke-width="1"/>
<text x="882.0" y="550.0" fill="#8b949e" font-size="11" text-anchor="middle" style="font-variant-numeric:tabular-nums">400</text>
<line x1="995.0" y1="114.0" x2="995.0" y2="532.0" stroke="#21262d" stroke-width="1"/>
<text x="995.0" y="550.0" fill="#8b949e" font-size="11" text-anchor="middle" style="font-variant-numeric:tabular-nums">600</text>
<line x1="1108.0" y1="114.0" x2="1108.0" y2="532.0" stroke="#21262d" stroke-width="1"/>
<text x="1108.0" y="550.0" fill="#8b949e" font-size="11" text-anchor="middle" style="font-variant-numeric:tabular-nums">800</text>
<line x1="656.0" y1="114.0" x2="656.0" y2="532.0" stroke="#30363d" stroke-width="1.25"/>
<line x1="656.0" y1="532.0" x2="1108.0" y2="532.0" stroke="#30363d" stroke-width="1.25"/>
<text x="882.0" y="564.0" fill="#8b949e" font-size="10" font-weight="700" letter-spacing=".06em" text-anchor="middle">FLEET (DT)</text>
<g clip-path="url(#sc-clip-1)">
<polygon points="661.6,121.5 667.3,123.0 673.0,125.0 678.6,128.2 684.2,133.5 689.9,143.1 695.5,159.3 701.2,178.9 706.9,188.6 712.5,198.0 718.1,206.9 723.8,214.9 729.5,222.3 735.1,228.9 740.8,235.0 746.4,242.2 752.0,254.7 757.7,266.2 763.4,276.8 769.0,286.7 774.6,295.7 780.3,304.1 786.0,312.0 791.6,319.3 797.2,326.2 802.9,332.7 808.5,338.7 814.2,344.4 819.9,344.7 825.5,344.7 831.1,344.7 836.8,344.7 842.5,344.7 848.1,344.7 853.8,344.7 859.4,344.7 865.0,344.7 870.7,344.7 876.4,344.7 882.0,344.7 887.6,344.7 893.3,344.7 899.0,344.7 904.6,344.7 910.2,344.7 915.9,344.7 921.5,344.7 927.2,344.7 932.9,344.7 938.5,344.7 944.1,344.7 949.8,344.7 955.5,344.7 961.1,344.7 966.8,344.7 972.4,344.7 978.0,344.7 983.7,344.7 989.4,344.7 995.0,344.7 1000.6,344.7 1006.3,344.7 1012.0,344.7 1017.6,344.7 1023.2,344.7 1028.9,344.7 1034.5,344.7 1040.2,344.7 1045.8,344.7 1051.5,344.7 1057.2,344.7 1062.8,344.7 1068.5,344.7 1074.1,344.7 1079.8,344.7 1085.4,344.7 1091.0,344.7 1096.7,344.7 1102.3,344.7 1108.0,344.7 1108.0,451.7 1102.3,451.7 1096.7,451.7 1091.0,451.7 1085.4,451.7 1079.8,451.7 1074.1,451.7 1068.5,451.7 1062.8,451.7 1057.2,451.7 1051.5,451.7 1045.8,451.7 1040.2,451.7 1034.5,451.7 1028.9,451.7 1023.2,451.7 1017.6,451.7 1012.0,451.7 1006.3,451.7 1000.6,451.7 995.0,451.7 989.4,451.7 983.7,451.7 978.0,451.7 972.4,451.7 966.8,451.7 961.1,451.7 955.5,451.7 949.8,451.7 944.1,451.7 938.5,451.7 932.9,451.7 927.2,451.7 921.5,451.7 915.9,451.7 910.2,451.7 904.6,451.7 899.0,451.7 893.3,451.7 887.6,451.7 882.0,451.7 876.4,451.7 870.7,451.7 865.0,451.7 859.4,451.7 853.8,451.7 848.1,451.7 842.5,451.7 836.8,451.7 831.1,451.7 825.5,451.7 819.9,451.7 814.2,451.6 808.5,449.2 802.9,446.5 797.2,443.8 791.6,440.9 786.0,437.7 780.3,434.3 774.6,430.8 769.0,426.9 763.4,422.6 757.7,418.1 752.0,413.2 746.4,407.8 740.8,395.3 735.1,379.9 729.5,362.9 723.8,344.1 718.1,323.1 712.5,299.8 706.9,273.9 701.2,245.3 695.5,227.0 689.9,213.8 684.2,205.9 678.6,201.6 673.0,199.0 667.3,197.4 661.6,196.1" fill="rgba(88,166,255,.14)" stroke="none"/>
<line x1="656.0" y1="479.4" x2="1108.0" y2="479.4" stroke="#f85149" stroke-width="1" stroke-dasharray="3 4" stroke-opacity=".85"/>
<line x1="689.9" y1="114.0" x2="689.9" y2="532.0" stroke="#d29922" stroke-width="1.25" stroke-dasharray="4 4" stroke-opacity=".9"/>
<polyline points="661.6,158.8 667.3,160.2 673.0,162.0 678.6,164.9 684.2,169.7 689.9,178.4 695.5,193.1 701.2,212.1 706.9,231.2 712.5,248.9 718.1,265.0 723.8,279.5 729.5,292.6 735.1,304.5 740.8,315.2 746.4,325.0 752.0,333.9 757.7,342.2 763.4,349.8 769.0,356.8 774.6,363.2 780.3,369.2 786.0,374.9 791.6,380.1 797.2,385.0 802.9,389.6 808.5,393.9 814.2,398.0 819.9,398.2 825.5,398.2 831.1,398.2 836.8,398.2 842.5,398.2 848.1,398.2 853.8,398.2 859.4,398.2 865.0,398.2 870.7,398.2 876.4,398.2 882.0,398.2 887.6,398.2 893.3,398.2 899.0,398.2 904.6,398.2 910.2,398.2 915.9,398.2 921.5,398.2 927.2,398.2 932.9,398.2 938.5,398.2 944.1,398.2 949.8,398.2 955.5,398.2 961.1,398.2 966.8,398.2 972.4,398.2 978.0,398.2 983.7,398.2 989.4,398.2 995.0,398.2 1000.6,398.2 1006.3,398.2 1012.0,398.2 1017.6,398.2 1023.2,398.2 1028.9,398.2 1034.5,398.2 1040.2,398.2 1045.8,398.2 1051.5,398.2 1057.2,398.2 1062.8,398.2 1068.5,398.2 1074.1,398.2 1079.8,398.2 1085.4,398.2 1091.0,398.2 1096.7,398.2 1102.3,398.2 1108.0,398.2" fill="none" stroke="#58a6ff" stroke-width="2.4" stroke-linejoin="round" stroke-linecap="round"/>
<circle cx="1108.0" cy="398.2" r="3.2" fill="#58a6ff"/>
<polyline points="661.6,158.8 667.3,160.2 673.0,161.5 678.6,162.8 684.2,164.2 689.9,165.1 695.5,165.1 701.2,165.1 706.9,165.1 712.5,165.1 718.1,165.1 723.8,165.1 729.5,165.1 735.1,165.1 740.8,165.1 746.4,165.1 752.0,165.1 757.7,165.1 763.4,165.1 769.0,165.1 774.6,165.1 780.3,165.1 786.0,165.1 791.6,165.1 797.2,165.1 802.9,165.1 808.5,165.1 814.2,165.1 819.9,165.2 825.5,165.3 831.1,165.4 836.8,165.5 842.5,165.6 848.1,165.8 853.8,165.9 859.4,166.1 865.0,166.3 870.7,166.5 876.4,166.6 882.0,166.8 887.6,167.1 893.3,167.3 899.0,167.6 904.6,167.8 910.2,168.2 915.9,168.5 921.5,168.8 927.2,169.1 932.9,169.5 938.5,169.8 944.1,170.2 949.8,170.6 955.5,171.0 961.1,171.5 966.8,171.9 972.4,172.4 978.0,172.8 983.7,173.3 989.4,173.8 995.0,174.4 1000.6,174.9 1006.3,175.5 1012.0,176.0 1017.6,176.6 1023.2,177.2 1028.9,177.8 1034.5,178.4 1040.2,179.0 1045.8,179.7 1051.5,180.4 1057.2,181.0 1062.8,181.7 1068.5,182.4 1074.1,183.1 1079.8,183.8 1085.4,184.5 1091.0,185.2 1096.7,185.9 1102.3,186.7 1108.0,187.4" fill="none" stroke="#f0883e" stroke-width="2.4" stroke-linejoin="round" stroke-linecap="round" stroke-dasharray="7 5"/>
<circle cx="1108.0" cy="187.4" r="3.2" fill="#f0883e"/>
</g>
<text x="1114.0" y="482.4" fill="#f85149" font-size="10" text-anchor="start">1 / day</text>
<rect x="660.0" y="120.0" width="90.0" height="18" rx="4" fill="#161b22" stroke="#d29922"/>
<text x="705.0" y="133.0" fill="#d29922" font-size="10" font-weight="700" text-anchor="middle">Knee 60 DT</text>
<text x="1114.0" y="396.2" fill="#58a6ff" font-size="11" font-weight="700" style="font-variant-numeric:tabular-nums">2.54</text>
<text x="1114.0" y="199.4" fill="#f0883e" font-size="11" font-weight="700" style="font-variant-numeric:tabular-nums">6.55</text>
<line x1="28" y1="584" x2="1152" y2="584" stroke="#30363d"/>
<line x1="28" y1="604" x2="50" y2="604" stroke="#58a6ff" stroke-width="2.2"/>
<text x="58" y="608" fill="#e6edf3" font-size="12">Fixed loaders</text>
<line x1="208" y1="604" x2="230" y2="604" stroke="#f0883e" stroke-width="2.2" stroke-dasharray="6 4"/>
<text x="238" y="608" fill="#e6edf3" font-size="12">Loaders grow with fleet</text>
<line x1="448" y1="604" x2="470" y2="604" stroke="#d29922" stroke-width="2.2" stroke-dasharray="6 4"/>
<text x="478" y="608" fill="#e6edf3" font-size="12">Knee</text>
<rect x="568" y="599" width="18" height="10" rx="2" fill="rgba(88,166,255,.14)" stroke="#58a6ff"/>
<text x="598" y="608" fill="#e6edf3" font-size="12">P10–P90</text>
</svg>